solid CATIA STL
  facet normal -1.000000e+00  0.000000e+00  0.000000e+00
    outer loop
      vertex  0.000000e+00 -5.000000e-02  1.500000e-01
      vertex  0.000000e+00 -3.500000e-01  1.500000e-01
      vertex  0.000000e+00 -2.500000e-01  2.500000e-01
    endloop
  endfacet
  facet normal -1.000000e+00  0.000000e+00  0.000000e+00
    outer loop
      vertex  0.000000e+00 -5.000000e-02  1.500000e-01
      vertex  0.000000e+00 -2.500000e-01  2.500000e-01
      vertex  0.000000e+00  5.000000e-02  1.500000e-01
    endloop
  endfacet
  facet normal -1.000000e+00  -0.000000e+00  -0.000000e+00
    outer loop
      vertex  0.000000e+00 -5.000000e-02  1.500000e-01
      vertex  0.000000e+00  5.000000e-02  1.500000e-01
      vertex  0.000000e+00  5.000000e-02  0.000000e+00
    endloop
  endfacet
  facet normal -1.000000e+00  0.000000e+00  0.000000e+00
    outer loop
      vertex  0.000000e+00 -5.000000e-02  1.500000e-01
      vertex  0.000000e+00  5.000000e-02  0.000000e+00
      vertex  0.000000e+00 -5.000000e-02  0.000000e+00
    endloop
  endfacet
  facet normal -1.000000e+00  0.000000e+00  0.000000e+00
    outer loop
      vertex  0.000000e+00  3.500000e-01  1.850000e+00
      vertex  0.000000e+00 -2.500000e-01  1.750000e+00
      vertex  0.000000e+00 -3.500000e-01  1.850000e+00
    endloop
  endfacet
  facet normal -1.000000e+00  0.000000e+00  0.000000e+00
    outer loop
      vertex  0.000000e+00 -3.500000e-01  1.850000e+00
      vertex  0.000000e+00 -2.500000e-01  1.750000e+00
      vertex  0.000000e+00 -2.500000e-01  2.500000e-01
    endloop
  endfacet
  facet normal -1.000000e+00  -0.000000e+00  0.000000e+00
    outer loop
      vertex  0.000000e+00 -3.500000e-01  1.850000e+00
      vertex  0.000000e+00 -2.500000e-01  2.500000e-01
      vertex  0.000000e+00 -3.500000e-01  1.500000e-01
    endloop
  endfacet
  facet normal -1.000000e+00  0.000000e+00  0.000000e+00
    outer loop
      vertex  0.000000e+00 -2.500000e-01  1.750000e+00
      vertex  0.000000e+00  3.500000e-01  1.850000e+00
      vertex  0.000000e+00  2.500000e-01  1.750000e+00
    endloop
  endfacet
  facet normal -1.000000e+00  0.000000e+00  0.000000e+00
    outer loop
      vertex  0.000000e+00  2.500000e-01  1.750000e+00
      vertex  0.000000e+00  3.500000e-01  1.850000e+00
      vertex  0.000000e+00  3.500000e-01  1.500000e-01
    endloop
  endfacet
  facet normal -1.000000e+00  0.000000e+00  0.000000e+00
    outer loop
      vertex  0.000000e+00  2.500000e-01  1.750000e+00
      vertex  0.000000e+00  3.500000e-01  1.500000e-01
      vertex  0.000000e+00  2.500000e-01  2.500000e-01
    endloop
  endfacet
  facet normal -1.000000e+00  0.000000e+00  -0.000000e+00
    outer loop
      vertex  0.000000e+00  2.500000e-01  2.500000e-01
      vertex  0.000000e+00  3.500000e-01  1.500000e-01
      vertex  0.000000e+00  5.000000e-02  1.500000e-01
    endloop
  endfacet
  facet normal -1.000000e+00  0.000000e+00  0.000000e+00
    outer loop
      vertex  0.000000e+00  2.500000e-01  2.500000e-01
      vertex  0.000000e+00  5.000000e-02  1.500000e-01
      vertex  0.000000e+00 -2.500000e-01  2.500000e-01
    endloop
  endfacet
  facet normal  1.000000e+00  0.000000e+00  0.000000e+00
    outer loop
      vertex  1.000000e-01 -5.000000e-02  1.500000e-01
      vertex  1.000000e-01 -5.000000e-02  0.000000e+00
      vertex  1.000000e-01  5.000000e-02  0.000000e+00
    endloop
  endfacet
  facet normal  1.000000e+00  0.000000e+00  -0.000000e+00
    outer loop
      vertex  1.000000e-01 -5.000000e-02  1.500000e-01
      vertex  1.000000e-01  5.000000e-02  0.000000e+00
      vertex  1.000000e-01  5.000000e-02  1.500000e-01
    endloop
  endfacet
  facet normal  1.000000e+00  0.000000e+00  0.000000e+00
    outer loop
      vertex  1.000000e-01 -5.000000e-02  1.500000e-01
      vertex  1.000000e-01  5.000000e-02  1.500000e-01
      vertex  1.000000e-01 -2.500000e-01  2.500000e-01
    endloop
  endfacet
  facet normal  1.000000e+00  0.000000e+00  0.000000e+00
    outer loop
      vertex  1.000000e-01 -5.000000e-02  1.500000e-01
      vertex  1.000000e-01 -2.500000e-01  2.500000e-01
      vertex  1.000000e-01 -3.500000e-01  1.500000e-01
    endloop
  endfacet
  facet normal  1.000000e+00  0.000000e+00  0.000000e+00
    outer loop
      vertex  1.000000e-01 -3.500000e-01  1.500000e-01
      vertex  1.000000e-01 -2.500000e-01  2.500000e-01
      vertex  1.000000e-01 -3.500000e-01  1.850000e+00
    endloop
  endfacet
  facet normal  1.000000e+00  0.000000e+00  0.000000e+00
    outer loop
      vertex  1.000000e-01 -3.500000e-01  1.850000e+00
      vertex  1.000000e-01 -2.500000e-01  2.500000e-01
      vertex  1.000000e-01 -2.500000e-01  1.750000e+00
    endloop
  endfacet
  facet normal  1.000000e+00  0.000000e+00  -0.000000e+00
    outer loop
      vertex  1.000000e-01 -3.500000e-01  1.850000e+00
      vertex  1.000000e-01 -2.500000e-01  1.750000e+00
      vertex  1.000000e-01  3.500000e-01  1.850000e+00
    endloop
  endfacet
  facet normal  1.000000e+00  0.000000e+00  0.000000e+00
    outer loop
      vertex  1.000000e-01  3.500000e-01  1.850000e+00
      vertex  1.000000e-01 -2.500000e-01  1.750000e+00
      vertex  1.000000e-01  2.500000e-01  1.750000e+00
    endloop
  endfacet
  facet normal  1.000000e+00  -0.000000e+00  0.000000e+00
    outer loop
      vertex  1.000000e-01  3.500000e-01  1.850000e+00
      vertex  1.000000e-01  2.500000e-01  1.750000e+00
      vertex  1.000000e-01  3.500000e-01  1.500000e-01
    endloop
  endfacet
  facet normal  1.000000e+00  0.000000e+00  0.000000e+00
    outer loop
      vertex  1.000000e-01  3.500000e-01  1.500000e-01
      vertex  1.000000e-01  2.500000e-01  1.750000e+00
      vertex  1.000000e-01  2.500000e-01  2.500000e-01
    endloop
  endfacet
  facet normal  1.000000e+00  0.000000e+00  0.000000e+00
    outer loop
      vertex  1.000000e-01  3.500000e-01  1.500000e-01
      vertex  1.000000e-01  2.500000e-01  2.500000e-01
      vertex  1.000000e-01  5.000000e-02  1.500000e-01
    endloop
  endfacet
  facet normal  1.000000e+00  0.000000e+00  -0.000000e+00
    outer loop
      vertex  1.000000e-01  5.000000e-02  1.500000e-01
      vertex  1.000000e-01  2.500000e-01  2.500000e-01
      vertex  1.000000e-01 -2.500000e-01  2.500000e-01
    endloop
  endfacet
  facet normal  0.000000e+00  0.000000e+00 -1.000000e+00
    outer loop
      vertex  1.000000e-01 -5.000000e-02  1.500000e-01
      vertex  1.000000e-01 -3.500000e-01  1.500000e-01
      vertex  0.000000e+00 -5.000000e-02  1.500000e-01
    endloop
  endfacet
  facet normal  0.000000e+00  0.000000e+00 -1.000000e+00
    outer loop
      vertex  0.000000e+00 -5.000000e-02  1.500000e-01
      vertex  1.000000e-01 -3.500000e-01  1.500000e-01
      vertex  0.000000e+00 -3.500000e-01  1.500000e-01
    endloop
  endfacet
  facet normal  0.000000e+00  0.000000e+00 -1.000000e+00
    outer loop
      vertex  1.000000e-01  3.500000e-01  1.500000e-01
      vertex  1.000000e-01  5.000000e-02  1.500000e-01
      vertex  0.000000e+00  3.500000e-01  1.500000e-01
    endloop
  endfacet
  facet normal  0.000000e+00  0.000000e+00 -1.000000e+00
    outer loop
      vertex  0.000000e+00  3.500000e-01  1.500000e-01
      vertex  1.000000e-01  5.000000e-02  1.500000e-01
      vertex  0.000000e+00  5.000000e-02  1.500000e-01
    endloop
  endfacet
  facet normal  0.000000e+00 -1.000000e+00  0.000000e+00
    outer loop
      vertex  0.000000e+00 -5.000000e-02  1.500000e-01
      vertex  0.000000e+00 -5.000000e-02  0.000000e+00
      vertex  1.000000e-01 -5.000000e-02  1.500000e-01
    endloop
  endfacet
  facet normal  0.000000e+00 -1.000000e+00  -0.000000e+00
    outer loop
      vertex  1.000000e-01 -5.000000e-02  1.500000e-01
      vertex  0.000000e+00 -5.000000e-02  0.000000e+00
      vertex  1.000000e-01 -5.000000e-02  0.000000e+00
    endloop
  endfacet
  facet normal  0.000000e+00  1.000000e+00  -0.000000e+00
    outer loop
      vertex  1.000000e-01  5.000000e-02  1.500000e-01
      vertex  1.000000e-01  5.000000e-02  0.000000e+00
      vertex  0.000000e+00  5.000000e-02  1.500000e-01
    endloop
  endfacet
  facet normal  0.000000e+00  1.000000e+00  0.000000e+00
    outer loop
      vertex  0.000000e+00  5.000000e-02  1.500000e-01
      vertex  1.000000e-01  5.000000e-02  0.000000e+00
      vertex  0.000000e+00  5.000000e-02  0.000000e+00
    endloop
  endfacet
  facet normal  0.000000e+00  0.000000e+00 -1.000000e+00
    outer loop
      vertex  0.000000e+00 -5.000000e-02  0.000000e+00
      vertex  0.000000e+00  5.000000e-02  0.000000e+00
      vertex  1.000000e-01 -5.000000e-02  0.000000e+00
    endloop
  endfacet
  facet normal  0.000000e+00  0.000000e+00 -1.000000e+00
    outer loop
      vertex  1.000000e-01 -5.000000e-02  0.000000e+00
      vertex  0.000000e+00  5.000000e-02  0.000000e+00
      vertex  1.000000e-01  5.000000e-02  0.000000e+00
    endloop
  endfacet
  facet normal  0.000000e+00 -1.000000e+00  0.000000e+00
    outer loop
      vertex  1.000000e-01  2.500000e-01  1.750000e+00
      vertex  0.000000e+00  2.500000e-01  1.750000e+00
      vertex  1.000000e-01  2.500000e-01  2.500000e-01
    endloop
  endfacet
  facet normal  0.000000e+00 -1.000000e+00  0.000000e+00
    outer loop
      vertex  1.000000e-01  2.500000e-01  2.500000e-01
      vertex  0.000000e+00  2.500000e-01  1.750000e+00
      vertex  0.000000e+00  2.500000e-01  2.500000e-01
    endloop
  endfacet
  facet normal  0.000000e+00  0.000000e+00 -1.000000e+00
    outer loop
      vertex  1.000000e-01  2.500000e-01  1.750000e+00
      vertex  1.000000e-01 -2.500000e-01  1.750000e+00
      vertex  0.000000e+00  2.500000e-01  1.750000e+00
    endloop
  endfacet
  facet normal  0.000000e+00  0.000000e+00 -1.000000e+00
    outer loop
      vertex  0.000000e+00  2.500000e-01  1.750000e+00
      vertex  1.000000e-01 -2.500000e-01  1.750000e+00
      vertex  0.000000e+00 -2.500000e-01  1.750000e+00
    endloop
  endfacet
  facet normal  0.000000e+00  1.000000e+00  0.000000e+00
    outer loop
      vertex  1.000000e-01 -2.500000e-01  2.500000e-01
      vertex  0.000000e+00 -2.500000e-01  2.500000e-01
      vertex  1.000000e-01 -2.500000e-01  1.750000e+00
    endloop
  endfacet
  facet normal  0.000000e+00  1.000000e+00  0.000000e+00
    outer loop
      vertex  1.000000e-01 -2.500000e-01  1.750000e+00
      vertex  0.000000e+00 -2.500000e-01  2.500000e-01
      vertex  0.000000e+00 -2.500000e-01  1.750000e+00
    endloop
  endfacet
  facet normal  0.000000e+00  0.000000e+00  1.000000e+00
    outer loop
      vertex  1.000000e-01 -2.500000e-01  2.500000e-01
      vertex  1.000000e-01  2.500000e-01  2.500000e-01
      vertex  0.000000e+00 -2.500000e-01  2.500000e-01
    endloop
  endfacet
  facet normal  0.000000e+00  0.000000e+00  1.000000e+00
    outer loop
      vertex  0.000000e+00 -2.500000e-01  2.500000e-01
      vertex  1.000000e-01  2.500000e-01  2.500000e-01
      vertex  0.000000e+00  2.500000e-01  2.500000e-01
    endloop
  endfacet
  facet normal  0.000000e+00  1.000000e+00  -0.000000e+00
    outer loop
      vertex  1.000000e-01  3.500000e-01  1.850000e+00
      vertex  1.000000e-01  3.500000e-01  1.500000e-01
      vertex  0.000000e+00  3.500000e-01  1.850000e+00
    endloop
  endfacet
  facet normal  0.000000e+00  1.000000e+00  0.000000e+00
    outer loop
      vertex  0.000000e+00  3.500000e-01  1.850000e+00
      vertex  1.000000e-01  3.500000e-01  1.500000e-01
      vertex  0.000000e+00  3.500000e-01  1.500000e-01
    endloop
  endfacet
  facet normal  0.000000e+00 -1.000000e+00  -0.000000e+00
    outer loop
      vertex  1.000000e-01 -3.500000e-01  1.500000e-01
      vertex  1.000000e-01 -3.500000e-01  1.850000e+00
      vertex  0.000000e+00 -3.500000e-01  1.500000e-01
    endloop
  endfacet
  facet normal  0.000000e+00 -1.000000e+00  0.000000e+00
    outer loop
      vertex  0.000000e+00 -3.500000e-01  1.500000e-01
      vertex  1.000000e-01 -3.500000e-01  1.850000e+00
      vertex  0.000000e+00 -3.500000e-01  1.850000e+00
    endloop
  endfacet
  facet normal  0.000000e+00  0.000000e+00  1.000000e+00
    outer loop
      vertex  1.000000e-01 -3.500000e-01  1.850000e+00
      vertex  1.000000e-01  3.500000e-01  1.850000e+00
      vertex  0.000000e+00 -3.500000e-01  1.850000e+00
    endloop
  endfacet
  facet normal  0.000000e+00  0.000000e+00  1.000000e+00
    outer loop
      vertex  0.000000e+00 -3.500000e-01  1.850000e+00
      vertex  1.000000e-01  3.500000e-01  1.850000e+00
      vertex  0.000000e+00  3.500000e-01  1.850000e+00
    endloop
  endfacet
endsolid CATIA STL
