solid CATIA STL
  facet normal -1.000000e+00  0.000000e+00  0.000000e+00
    outer loop
      vertex  0.000000e+00 -5.000000e-02  4.500000e-01
      vertex  0.000000e+00 -4.000000e-01  4.500000e-01
      vertex  0.000000e+00 -3.000000e-01  5.500000e-01
    endloop
  endfacet
  facet normal -1.000000e+00  0.000000e+00  0.000000e+00
    outer loop
      vertex  0.000000e+00 -5.000000e-02  4.500000e-01
      vertex  0.000000e+00 -3.000000e-01  5.500000e-01
      vertex  0.000000e+00  5.000000e-02  4.500000e-01
    endloop
  endfacet
  facet normal -1.000000e+00  -0.000000e+00  -0.000000e+00
    outer loop
      vertex  0.000000e+00 -5.000000e-02  4.500000e-01
      vertex  0.000000e+00  5.000000e-02  4.500000e-01
      vertex  0.000000e+00  5.000000e-02  5.551115e-17
    endloop
  endfacet
  facet normal -1.000000e+00  -0.000000e+00  0.000000e+00
    outer loop
      vertex  0.000000e+00 -5.000000e-02  4.500000e-01
      vertex  0.000000e+00  5.000000e-02  5.551115e-17
      vertex  0.000000e+00 -5.000000e-02  0.000000e+00
    endloop
  endfacet
  facet normal -1.000000e+00  0.000000e+00  0.000000e+00
    outer loop
      vertex  0.000000e+00  4.000000e-01  1.550000e+00
      vertex  0.000000e+00 -3.000000e-01  1.450000e+00
      vertex  0.000000e+00 -4.000000e-01  1.550000e+00
    endloop
  endfacet
  facet normal -1.000000e+00  0.000000e+00  0.000000e+00
    outer loop
      vertex  0.000000e+00 -4.000000e-01  1.550000e+00
      vertex  0.000000e+00 -3.000000e-01  1.450000e+00
      vertex  0.000000e+00 -3.000000e-01  5.500000e-01
    endloop
  endfacet
  facet normal -9.999999e-01  -0.000000e+00  0.000000e+00
    outer loop
      vertex  0.000000e+00 -4.000000e-01  1.550000e+00
      vertex  0.000000e+00 -3.000000e-01  5.500000e-01
      vertex  0.000000e+00 -4.000000e-01  4.500000e-01
    endloop
  endfacet
  facet normal -1.000000e+00  0.000000e+00  0.000000e+00
    outer loop
      vertex  0.000000e+00 -3.000000e-01  1.450000e+00
      vertex  0.000000e+00  4.000000e-01  1.550000e+00
      vertex  0.000000e+00  3.000000e-01  1.450000e+00
    endloop
  endfacet
  facet normal -9.999999e-01  0.000000e+00  0.000000e+00
    outer loop
      vertex  0.000000e+00  3.000000e-01  1.450000e+00
      vertex  0.000000e+00  4.000000e-01  1.550000e+00
      vertex  0.000000e+00  4.000000e-01  4.500000e-01
    endloop
  endfacet
  facet normal -1.000000e+00  0.000000e+00  0.000000e+00
    outer loop
      vertex  0.000000e+00  3.000000e-01  1.450000e+00
      vertex  0.000000e+00  4.000000e-01  4.500000e-01
      vertex  0.000000e+00  3.000000e-01  5.500000e-01
    endloop
  endfacet
  facet normal -1.000000e+00  0.000000e+00  -0.000000e+00
    outer loop
      vertex  0.000000e+00  3.000000e-01  5.500000e-01
      vertex  0.000000e+00  4.000000e-01  4.500000e-01
      vertex  0.000000e+00  5.000000e-02  4.500000e-01
    endloop
  endfacet
  facet normal -1.000000e+00  0.000000e+00  0.000000e+00
    outer loop
      vertex  0.000000e+00  3.000000e-01  5.500000e-01
      vertex  0.000000e+00  5.000000e-02  4.500000e-01
      vertex  0.000000e+00 -3.000000e-01  5.500000e-01
    endloop
  endfacet
  facet normal  1.000000e+00  0.000000e+00  0.000000e+00
    outer loop
      vertex  1.000000e-01 -5.000000e-02  4.500000e-01
      vertex  1.000000e-01 -5.000000e-02  0.000000e+00
      vertex  1.000000e-01  5.000000e-02  0.000000e+00
    endloop
  endfacet
  facet normal  1.000000e+00  0.000000e+00  -0.000000e+00
    outer loop
      vertex  1.000000e-01 -5.000000e-02  4.500000e-01
      vertex  1.000000e-01  5.000000e-02  0.000000e+00
      vertex  1.000000e-01  5.000000e-02  4.500000e-01
    endloop
  endfacet
  facet normal  1.000000e+00  0.000000e+00  0.000000e+00
    outer loop
      vertex  1.000000e-01 -5.000000e-02  4.500000e-01
      vertex  1.000000e-01  5.000000e-02  4.500000e-01
      vertex  1.000000e-01 -3.000000e-01  5.500000e-01
    endloop
  endfacet
  facet normal  1.000000e+00  0.000000e+00  0.000000e+00
    outer loop
      vertex  1.000000e-01 -5.000000e-02  4.500000e-01
      vertex  1.000000e-01 -3.000000e-01  5.500000e-01
      vertex  1.000000e-01 -4.000000e-01  4.500000e-01
    endloop
  endfacet
  facet normal  9.999999e-01  0.000000e+00  0.000000e+00
    outer loop
      vertex  1.000000e-01 -4.000000e-01  4.500000e-01
      vertex  1.000000e-01 -3.000000e-01  5.500000e-01
      vertex  1.000000e-01 -4.000000e-01  1.550000e+00
    endloop
  endfacet
  facet normal  1.000000e+00  0.000000e+00  0.000000e+00
    outer loop
      vertex  1.000000e-01 -4.000000e-01  1.550000e+00
      vertex  1.000000e-01 -3.000000e-01  5.500000e-01
      vertex  1.000000e-01 -3.000000e-01  1.450000e+00
    endloop
  endfacet
  facet normal  1.000000e+00  0.000000e+00  -0.000000e+00
    outer loop
      vertex  1.000000e-01 -4.000000e-01  1.550000e+00
      vertex  1.000000e-01 -3.000000e-01  1.450000e+00
      vertex  1.000000e-01  4.000000e-01  1.550000e+00
    endloop
  endfacet
  facet normal  1.000000e+00  0.000000e+00  0.000000e+00
    outer loop
      vertex  1.000000e-01  4.000000e-01  1.550000e+00
      vertex  1.000000e-01 -3.000000e-01  1.450000e+00
      vertex  1.000000e-01  3.000000e-01  1.450000e+00
    endloop
  endfacet
  facet normal  9.999999e-01  -0.000000e+00  0.000000e+00
    outer loop
      vertex  1.000000e-01  4.000000e-01  1.550000e+00
      vertex  1.000000e-01  3.000000e-01  1.450000e+00
      vertex  1.000000e-01  4.000000e-01  4.500000e-01
    endloop
  endfacet
  facet normal  1.000000e+00  0.000000e+00  0.000000e+00
    outer loop
      vertex  1.000000e-01  4.000000e-01  4.500000e-01
      vertex  1.000000e-01  3.000000e-01  1.450000e+00
      vertex  1.000000e-01  3.000000e-01  5.500000e-01
    endloop
  endfacet
  facet normal  1.000000e+00  0.000000e+00  0.000000e+00
    outer loop
      vertex  1.000000e-01  4.000000e-01  4.500000e-01
      vertex  1.000000e-01  3.000000e-01  5.500000e-01
      vertex  1.000000e-01  5.000000e-02  4.500000e-01
    endloop
  endfacet
  facet normal  1.000000e+00  0.000000e+00  -0.000000e+00
    outer loop
      vertex  1.000000e-01  5.000000e-02  4.500000e-01
      vertex  1.000000e-01  3.000000e-01  5.500000e-01
      vertex  1.000000e-01 -3.000000e-01  5.500000e-01
    endloop
  endfacet
  facet normal  0.000000e+00  0.000000e+00 -1.000000e+00
    outer loop
      vertex  1.000000e-01 -5.000000e-02  4.500000e-01
      vertex  1.000000e-01 -4.000000e-01  4.500000e-01
      vertex  0.000000e+00 -5.000000e-02  4.500000e-01
    endloop
  endfacet
  facet normal  0.000000e+00  0.000000e+00 -1.000000e+00
    outer loop
      vertex  0.000000e+00 -5.000000e-02  4.500000e-01
      vertex  1.000000e-01 -4.000000e-01  4.500000e-01
      vertex  0.000000e+00 -4.000000e-01  4.500000e-01
    endloop
  endfacet
  facet normal  0.000000e+00  0.000000e+00 -1.000000e+00
    outer loop
      vertex  1.000000e-01  4.000000e-01  4.500000e-01
      vertex  1.000000e-01  5.000000e-02  4.500000e-01
      vertex  0.000000e+00  4.000000e-01  4.500000e-01
    endloop
  endfacet
  facet normal  0.000000e+00  0.000000e+00 -1.000000e+00
    outer loop
      vertex  0.000000e+00  4.000000e-01  4.500000e-01
      vertex  1.000000e-01  5.000000e-02  4.500000e-01
      vertex  0.000000e+00  5.000000e-02  4.500000e-01
    endloop
  endfacet
  facet normal  0.000000e+00 -1.000000e+00  0.000000e+00
    outer loop
      vertex  0.000000e+00 -5.000000e-02  4.500000e-01
      vertex  0.000000e+00 -5.000000e-02  0.000000e+00
      vertex  1.000000e-01 -5.000000e-02  4.500000e-01
    endloop
  endfacet
  facet normal  0.000000e+00 -1.000000e+00  -0.000000e+00
    outer loop
      vertex  1.000000e-01 -5.000000e-02  4.500000e-01
      vertex  0.000000e+00 -5.000000e-02  0.000000e+00
      vertex  1.000000e-01 -5.000000e-02  0.000000e+00
    endloop
  endfacet
  facet normal  0.000000e+00  1.000000e+00  -0.000000e+00
    outer loop
      vertex  1.000000e-01  5.000000e-02  4.500000e-01
      vertex  1.000000e-01  5.000000e-02  0.000000e+00
      vertex  0.000000e+00  5.000000e-02  4.500000e-01
    endloop
  endfacet
  facet normal  0.000000e+00  1.000000e+00  0.000000e+00
    outer loop
      vertex  0.000000e+00  5.000000e-02  4.500000e-01
      vertex  1.000000e-01  5.000000e-02  0.000000e+00
      vertex  0.000000e+00  5.000000e-02  5.551115e-17
    endloop
  endfacet
  facet normal  0.000000e+00  5.551115e-16 -1.000000e+00
    outer loop
      vertex  0.000000e+00 -5.000000e-02  0.000000e+00
      vertex  0.000000e+00  5.000000e-02  5.551115e-17
      vertex  1.000000e-01 -5.000000e-02  0.000000e+00
    endloop
  endfacet
  facet normal -5.551115e-16  0.000000e+00 -1.000000e+00
    outer loop
      vertex  1.000000e-01 -5.000000e-02  0.000000e+00
      vertex  0.000000e+00  5.000000e-02  5.551115e-17
      vertex  1.000000e-01  5.000000e-02  0.000000e+00
    endloop
  endfacet
  facet normal  0.000000e+00 -1.000000e+00  0.000000e+00
    outer loop
      vertex  1.000000e-01  3.000000e-01  1.450000e+00
      vertex  0.000000e+00  3.000000e-01  1.450000e+00
      vertex  1.000000e-01  3.000000e-01  5.500000e-01
    endloop
  endfacet
  facet normal  0.000000e+00 -1.000000e+00  0.000000e+00
    outer loop
      vertex  1.000000e-01  3.000000e-01  5.500000e-01
      vertex  0.000000e+00  3.000000e-01  1.450000e+00
      vertex  0.000000e+00  3.000000e-01  5.500000e-01
    endloop
  endfacet
  facet normal  0.000000e+00  0.000000e+00 -1.000000e+00
    outer loop
      vertex  1.000000e-01  3.000000e-01  1.450000e+00
      vertex  1.000000e-01 -3.000000e-01  1.450000e+00
      vertex  0.000000e+00  3.000000e-01  1.450000e+00
    endloop
  endfacet
  facet normal  0.000000e+00  0.000000e+00 -1.000000e+00
    outer loop
      vertex  0.000000e+00  3.000000e-01  1.450000e+00
      vertex  1.000000e-01 -3.000000e-01  1.450000e+00
      vertex  0.000000e+00 -3.000000e-01  1.450000e+00
    endloop
  endfacet
  facet normal  0.000000e+00  1.000000e+00  0.000000e+00
    outer loop
      vertex  1.000000e-01 -3.000000e-01  5.500000e-01
      vertex  0.000000e+00 -3.000000e-01  5.500000e-01
      vertex  1.000000e-01 -3.000000e-01  1.450000e+00
    endloop
  endfacet
  facet normal  0.000000e+00  1.000000e+00  0.000000e+00
    outer loop
      vertex  1.000000e-01 -3.000000e-01  1.450000e+00
      vertex  0.000000e+00 -3.000000e-01  5.500000e-01
      vertex  0.000000e+00 -3.000000e-01  1.450000e+00
    endloop
  endfacet
  facet normal  0.000000e+00  0.000000e+00  1.000000e+00
    outer loop
      vertex  1.000000e-01 -3.000000e-01  5.500000e-01
      vertex  1.000000e-01  3.000000e-01  5.500000e-01
      vertex  0.000000e+00 -3.000000e-01  5.500000e-01
    endloop
  endfacet
  facet normal  0.000000e+00  0.000000e+00  1.000000e+00
    outer loop
      vertex  0.000000e+00 -3.000000e-01  5.500000e-01
      vertex  1.000000e-01  3.000000e-01  5.500000e-01
      vertex  0.000000e+00  3.000000e-01  5.500000e-01
    endloop
  endfacet
  facet normal  0.000000e+00  1.000000e+00  -0.000000e+00
    outer loop
      vertex  1.000000e-01  4.000000e-01  1.550000e+00
      vertex  1.000000e-01  4.000000e-01  4.500000e-01
      vertex  0.000000e+00  4.000000e-01  1.550000e+00
    endloop
  endfacet
  facet normal  0.000000e+00  1.000000e+00  0.000000e+00
    outer loop
      vertex  0.000000e+00  4.000000e-01  1.550000e+00
      vertex  1.000000e-01  4.000000e-01  4.500000e-01
      vertex  0.000000e+00  4.000000e-01  4.500000e-01
    endloop
  endfacet
  facet normal  0.000000e+00 -1.000000e+00  -0.000000e+00
    outer loop
      vertex  1.000000e-01 -4.000000e-01  4.500000e-01
      vertex  1.000000e-01 -4.000000e-01  1.550000e+00
      vertex  0.000000e+00 -4.000000e-01  4.500000e-01
    endloop
  endfacet
  facet normal  0.000000e+00 -1.000000e+00  0.000000e+00
    outer loop
      vertex  0.000000e+00 -4.000000e-01  4.500000e-01
      vertex  1.000000e-01 -4.000000e-01  1.550000e+00
      vertex  0.000000e+00 -4.000000e-01  1.550000e+00
    endloop
  endfacet
  facet normal  0.000000e+00  0.000000e+00  1.000000e+00
    outer loop
      vertex  1.000000e-01 -4.000000e-01  1.550000e+00
      vertex  1.000000e-01  4.000000e-01  1.550000e+00
      vertex  0.000000e+00 -4.000000e-01  1.550000e+00
    endloop
  endfacet
  facet normal  0.000000e+00  0.000000e+00  1.000000e+00
    outer loop
      vertex  0.000000e+00 -4.000000e-01  1.550000e+00
      vertex  1.000000e-01  4.000000e-01  1.550000e+00
      vertex  0.000000e+00  4.000000e-01  1.550000e+00
    endloop
  endfacet
endsolid CATIA STL
